<?xml version="1.0" encoding="UTF-8" standalone="no"?>
<!DOCTYPE svg PUBLIC "-//W3C//DTD SVG 1.1//EN" "http://www.w3.org/Graphics/SVG/1.1/DTD/svg11.dtd">
<svg width="100%" height="100%" viewBox="0 0 512 512" version="1.1" xmlns="http://www.w3.org/2000/svg" xmlns:xlink="http://www.w3.org/1999/xlink" xml:space="preserve" xmlns:serif="http://www.serif.com/" style="fill-rule:evenodd;clip-rule:evenodd;stroke-linejoin:round;stroke-miterlimit:2;">
    <g transform="matrix(1,0,0,1,-1629,-72)">
        <g id="favicon" transform="matrix(1.13118,0,0,1.13118,-244.972,-110.812)">
            <rect x="1656.64" y="161.611" width="452.623" height="452.623" style="fill:none;"/>
            <g transform="matrix(1.95892,0,0,3.09682,-672.922,675.985)">
                <g transform="matrix(1.78518,0,0,1.12923,-841.694,-1309.62)">
                    <path d="M1174.77,1062.9C1177.77,1062.9 1180.53,1063.67 1183.06,1065.19C1185.59,1066.72 1187.59,1068.79 1189.08,1071.39C1190.56,1073.99 1191.3,1076.82 1191.3,1079.87C1191.3,1082.92 1190.56,1085.75 1189.08,1088.35C1187.59,1090.95 1185.59,1093.02 1183.06,1094.54C1180.53,1096.07 1177.77,1096.83 1174.77,1096.83C1171.78,1096.83 1169.01,1096.07 1166.46,1094.54C1163.92,1093.02 1161.91,1090.95 1160.42,1088.35C1158.94,1085.75 1158.2,1082.92 1158.2,1079.87C1158.2,1076.82 1158.94,1073.99 1160.42,1071.39C1161.91,1068.79 1163.92,1066.72 1166.46,1065.19C1169.01,1063.67 1171.78,1062.9 1174.77,1062.9ZM1174.77,1090.38C1176.52,1090.38 1178.14,1089.91 1179.63,1088.96C1181.13,1088.02 1182.32,1086.74 1183.19,1085.12C1184.06,1083.51 1184.5,1081.76 1184.5,1079.87C1184.5,1077.98 1184.06,1076.24 1183.19,1074.64C1182.32,1073.04 1181.13,1071.77 1179.63,1070.82C1178.14,1069.88 1176.52,1069.4 1174.77,1069.4C1173,1069.4 1171.36,1069.88 1169.87,1070.82C1168.37,1071.77 1167.18,1073.04 1166.31,1074.64C1165.44,1076.24 1165,1077.98 1165,1079.87C1165,1081.76 1165.44,1083.51 1166.31,1085.12C1167.18,1086.74 1168.37,1088.02 1169.87,1088.96C1171.36,1089.91 1173,1090.38 1174.77,1090.38Z" style="fill:white;fill-rule:nonzero;"/>
                    <path d="M1202.64,1063.47L1216.9,1084.23C1216.99,1084.38 1217.09,1084.45 1217.2,1084.45C1217.32,1084.45 1217.38,1084.35 1217.38,1084.14L1217.38,1063.47L1223.61,1063.47L1223.61,1096.4L1218.34,1096.4L1203.99,1075.29C1203.9,1075.2 1203.83,1075.16 1203.77,1075.16C1203.63,1075.16 1203.55,1075.26 1203.55,1075.46L1203.55,1096.4L1197.32,1096.4L1197.32,1063.47L1202.64,1063.47Z" style="fill:white;fill-rule:nonzero;"/>
                </g>
                <g transform="matrix(0.951982,-0.193659,0.306153,0.602184,-289.111,-454.224)">
                    <path d="M1267.32,990.216C1264.59,982.037 1260.13,975.394 1254.13,970.128L1291.01,923.012L1403.83,938.982L1446.41,1044.67L1376.17,1134.39L1263.35,1118.42L1232.15,1040.98C1236.81,1043.57 1248.23,1044.71 1255.01,1041.01L1278.43,1099.16L1367.03,1111.7L1422.19,1041.24L1388.75,958.244L1300.15,945.702L1267.32,990.216Z" style="fill:white;"/>
                </g>
            </g>
        </g>
    </g>
</svg>
