<?xml version="1.0" encoding="UTF-8" standalone="no"?>
<!DOCTYPE svg PUBLIC "-//W3C//DTD SVG 1.1//EN" "http://www.w3.org/Graphics/SVG/1.1/DTD/svg11.dtd">
<svg width="100%" height="100%" viewBox="0 0 666 324" version="1.1" xmlns="http://www.w3.org/2000/svg" xmlns:xlink="http://www.w3.org/1999/xlink" xml:space="preserve" xmlns:serif="http://www.serif.com/" style="fill-rule:evenodd;clip-rule:evenodd;stroke-linejoin:round;stroke-miterlimit:2;">
    <g transform="matrix(1,0,0,1,-2167.84,0)">
        <g id="logo-vecto" serif:id="logo vecto" transform="matrix(1,0,0,1,-60.7393,-17.2868)">
            <rect x="2228.58" y="17.287" width="665.261" height="323.947" style="fill:none;"/>
            <g transform="matrix(1.2439,0,0,1.96646,1120.55,362.263)">
                <g transform="matrix(1.78518,0,0,1.12923,-841.694,-1309.62)">
                    <path d="M988.818,1063.47C990.737,1063.47 992.445,1063.89 993.942,1064.74C995.439,1065.58 996.602,1066.72 997.431,1068.16C998.26,1069.6 998.674,1071.18 998.674,1072.89C998.674,1076.21 997.031,1078.91 993.746,1081C993.223,1081.38 992.627,1081.76 991.958,1082.14L998.936,1096.4L992.002,1096.4L986.507,1085.41C985.315,1086.02 984.181,1086.56 983.105,1087.02C982.843,1087.17 982.451,1087.36 981.928,1087.59L981.928,1096.4L975.822,1096.4L975.822,1063.47L988.818,1063.47ZM981.928,1081.09C985.213,1079.61 988.048,1078.02 990.432,1076.34C991.856,1075.32 992.569,1074.14 992.569,1072.8C992.569,1071.82 992.249,1071 991.609,1070.36C990.969,1069.72 990.054,1069.4 988.862,1069.4L982.364,1069.4C982.073,1069.4 981.928,1069.56 981.928,1069.88L981.928,1081.09Z" style="fill:white;"/>
                    <path d="M1023.58,1063.47L1023.58,1069.53L1011.28,1069.53C1010.93,1069.53 1010.75,1069.71 1010.75,1070.06L1010.75,1075.46L1023.58,1075.46L1023.58,1081.35L1010.75,1081.35L1010.75,1089.72C1010.75,1089.9 1010.81,1090.05 1010.91,1090.16C1011.01,1090.28 1011.13,1090.34 1011.28,1090.34L1027.89,1090.34L1027.89,1096.4L1004.47,1096.4L1004.47,1063.47L1023.58,1063.47Z" style="fill:white;"/>
                    <path d="M1038.88,1069.53C1039.26,1069.53 1039.45,1069.71 1039.45,1070.06L1039.45,1096.4L1045.77,1096.4L1045.77,1070.06C1045.77,1069.71 1045.95,1069.53 1046.3,1069.53L1055.06,1069.53L1055.06,1063.47L1030.16,1063.47L1030.16,1069.53L1038.88,1069.53Z" style="fill:white;"/>
                    <path d="M1065.83,1063.47L1065.83,1076.95L1078.48,1076.95L1078.48,1063.47L1084.85,1063.47L1084.85,1096.4L1078.48,1096.4L1078.48,1082.96L1065.83,1082.96L1065.83,1096.4L1059.47,1096.4L1059.47,1063.47L1065.83,1063.47Z" style="fill:white;"/>
                    <path d="M1106.65,1063.47L1118.25,1096.4L1111.45,1096.4L1109.53,1090.55L1098.19,1090.55L1096.27,1096.4L1089.43,1096.4L1101.07,1063.47L1106.65,1063.47ZM1104.25,1073.81C1104.17,1073.6 1104.04,1073.5 1103.86,1073.5C1103.69,1073.5 1103.56,1073.6 1103.47,1073.81L1099.98,1085.23L1107.7,1085.23L1104.25,1073.81Z" style="fill:white;"/>
                    <path d="M1135.96,1096.88C1133.31,1096.88 1130.79,1096.16 1128.39,1094.72C1125.99,1093.28 1124.07,1091.27 1122.61,1088.7C1121.16,1086.13 1120.43,1083.23 1120.43,1080C1120.43,1076.95 1121.16,1074.13 1122.61,1071.56C1124.07,1068.99 1126.04,1066.95 1128.54,1065.43C1131.05,1063.92 1133.76,1063.17 1136.7,1063.17C1139.2,1063.17 1141.56,1063.73 1143.76,1064.85C1145.97,1065.96 1147.84,1067.51 1149.35,1069.47C1150.86,1071.43 1151.89,1073.63 1152.44,1076.08L1145.81,1076.08C1145.06,1074.13 1143.86,1072.55 1142.22,1071.34C1140.57,1070.14 1138.74,1069.53 1136.7,1069.53C1134.98,1069.53 1133.39,1070.01 1131.92,1070.95C1130.46,1071.9 1129.29,1073.17 1128.43,1074.77C1127.58,1076.37 1127.15,1078.11 1127.15,1080C1127.15,1081.8 1127.58,1083.5 1128.43,1085.08C1129.29,1086.66 1130.46,1087.93 1131.95,1088.88C1133.43,1089.82 1135.06,1090.29 1136.83,1090.29C1138.66,1090.29 1140.29,1089.88 1141.71,1089.05C1143.14,1088.22 1144.24,1087.08 1145.03,1085.63C1145.81,1084.17 1146.21,1082.53 1146.21,1080.7L1152.44,1080.7L1152.44,1096.44L1146.21,1096.44L1146.21,1090.95C1145.19,1092.72 1143.8,1094.15 1142.04,1095.24C1140.28,1096.33 1138.26,1096.88 1135.96,1096.88Z" style="fill:white;"/>
                    <path d="M1174.77,1062.9C1177.77,1062.9 1180.53,1063.67 1183.06,1065.19C1185.59,1066.72 1187.59,1068.79 1189.08,1071.39C1190.56,1073.99 1191.3,1076.82 1191.3,1079.87C1191.3,1082.92 1190.56,1085.75 1189.08,1088.35C1187.59,1090.95 1185.59,1093.02 1183.06,1094.54C1180.53,1096.07 1177.77,1096.83 1174.77,1096.83C1171.78,1096.83 1169.01,1096.07 1166.46,1094.54C1163.92,1093.02 1161.91,1090.95 1160.42,1088.35C1158.94,1085.75 1158.2,1082.92 1158.2,1079.87C1158.2,1076.82 1158.94,1073.99 1160.42,1071.39C1161.91,1068.79 1163.92,1066.72 1166.46,1065.19C1169.01,1063.67 1171.78,1062.9 1174.77,1062.9ZM1174.77,1090.38C1176.52,1090.38 1178.14,1089.91 1179.63,1088.96C1181.13,1088.02 1182.32,1086.74 1183.19,1085.12C1184.06,1083.51 1184.5,1081.76 1184.5,1079.87C1184.5,1077.98 1184.06,1076.24 1183.19,1074.64C1182.32,1073.04 1181.13,1071.77 1179.63,1070.82C1178.14,1069.88 1176.52,1069.4 1174.77,1069.4C1173,1069.4 1171.36,1069.88 1169.87,1070.82C1168.37,1071.77 1167.18,1073.04 1166.31,1074.64C1165.44,1076.24 1165,1077.98 1165,1079.87C1165,1081.76 1165.44,1083.51 1166.31,1085.12C1167.18,1086.74 1168.37,1088.02 1169.87,1088.96C1171.36,1089.91 1173,1090.38 1174.77,1090.38Z" style="fill:white;"/>
                    <path d="M1202.64,1063.47L1216.9,1084.23C1216.99,1084.38 1217.09,1084.45 1217.2,1084.45C1217.32,1084.45 1217.38,1084.35 1217.38,1084.14L1217.38,1063.47L1223.61,1063.47L1223.61,1096.4L1218.34,1096.4L1203.99,1075.29C1203.9,1075.2 1203.83,1075.16 1203.77,1075.16C1203.63,1075.16 1203.55,1075.26 1203.55,1075.46L1203.55,1096.4L1197.32,1096.4L1197.32,1063.47L1202.64,1063.47Z" style="fill:white;"/>
                </g>
                <g transform="matrix(0.951982,-0.193659,0.306153,0.602184,-289.111,-454.224)">
                    <path d="M1266.77,991.787C1265.44,981.629 1260.13,975.394 1254.13,970.128L1291.01,923.012L1403.83,938.982L1446.41,1044.67L1376.17,1134.39L1263.35,1118.42L1231.15,1038.75C1234.21,1039.78 1240.68,1041.88 1245.8,1043.5C1247.07,1043.9 1250.36,1044.95 1250.41,1044.97C1250.42,1044.94 1252.77,1037.66 1252.94,1037.1L1278.43,1099.16L1367.03,1111.7L1422.19,1041.24L1388.75,958.244L1300.15,945.702L1266.77,991.787Z" style="fill:white;"/>
                </g>
            </g>
        </g>
    </g>
</svg>
